<svg version="1.2" xmlns="http://www.w3.org/2000/svg" viewBox="0 0 2144 2172" width="2144" height="2172">
	<title>A</title>
	<style>
		.s0 { fill: #2d73f9 } 
	</style>
	<path id="A" class="s0" aria-label="A"  d="m2019.9 3q42.9 4.1 71.6 26.6 28.6 22.5 40.9 55.3 12.3 32.7 6.2 71.6-6.2 38.9-34.8 75.7-26.6 36.9-77.8 67.6-51.2 28.6-128.9 40.9-57.4 47.1-118.8 131-59.3 81.8-114.6 188.3-55.2 104.4-102.3 225.1-47.1 120.8-75.7 243.6 47 12.2 79.8-4.1 32.7-18.5 18.4-61.4 32.8 10.2 53.2 51.1 22.5 38.9 14.3 81.9-8.1 40.9-53.2 69.6-45 28.6-141.2 16.4-14.3 102.3-10.2 194.4 6.1 90.1 34.8 161.7 18.4 49.1 49.1 77.8 30.7 26.6 63.4 38.8 34.8 12.3 65.5 10.3 30.7-2.1 53.2-12.3 32.8-16.4 51.2-40.9 18.4-26.6 28.7-51.2 10.2-28.7 12.2-61.4 10.3 22.5 24.6 55.3 14.3 30.7 22.5 73.6 14.4 84 4.1 149.4-8.2 65.5-34.8 116.7-43 81.9-108.5 124.9-65.4 42.9-139.1 51.1-71.7 6.2-145.3-22.5-71.7-28.6-129-90-55.2-63.5-88-157.6-32.7-96.2-26.6-225.2 4.1-100.3 24.6-208.7 20.4-110.6 55.2-223.1-59.3-16.4-100.3-28.7-40.9-12.3-98.2-22.5-77.8 110.5-157.6 210.8-77.8 98.3-167.8 180.1-55.3 49.1-116.7 90.1-59.3 38.9-124.8 63.4-65.5 22.5-135.1 28.7-69.6 4.1-143.3-16.4-92.1-24.6-143.3-79.8-51.1-57.3-67.5-124.9-16.4-69.5 0-143.2 16.4-75.8 61.4-141.2 65.5-92.1 139.2-143.3 75.7-51.2 165.8-71.7 92.1-20.4 202.6-14.3 110.5 4.1 249.7 22.5 79.8-88 157.6-182.1 77.7-96.2 153.5-188.3 77.8-92.1 155.5-176 77.8-86 161.7-155.6-73.7-6.1-169.9-4.1-96.2 2.1-190.3 22.5-94.2 20.5-171.9 65.5-77.8 45.1-114.6 124.9-22.6 49.1-16.4 96.2 6.1 47.1 53.2 67.5 30.7 14.3 61.4 10.3 32.7-6.2 59.4-16.4 30.7-12.3 57.3-32.8-12.3 22.5-30.7 55.3-18.5 32.7-51.2 69.6-88 98.2-190.3 133-102.4 34.8-190.4 18.4-88-18.4-149.4-79.8-59.3-63.4-63.4-161.7-4.1-77.7 22.5-155.5 28.6-77.8 81.8-143.3 67.6-86 157.6-135.1 90.1-51.1 190.4-75.7 100.3-24.6 204.6-26.6 106.5-4.1 206.8 6.1 100.2 8.2 188.3 26.6 90 18.5 159.6 36.9 34.8-34.8 90-79.8 57.4-45.1 120.8-84 65.5-40.9 128.9-65.4 65.5-24.6 118.8-20.5zm-1469.6 1305.8q36.9-22.5 81.9-61.4 45-38.9 96.2-90.1-30.7-2-71.6-4.1-41-2-86 0-43 0-86 10.3-40.9 8.1-73.6 26.6-41 24.5-53.3 63.4-10.2 36.9 6.2 63.5 18.4 26.6 65.5 30.7 47.1 4.1 120.7-38.9zm757.3-198.6q12.3-51.1 40.9-128.9 30.7-77.8 71.7-165.8 40.9-88 90-173.9 49.1-88.1 102.4-155.6-84 77.8-145.4 147.4-61.4 67.5-114.6 139.1-53.2 69.6-104.3 145.4-49.2 75.7-110.6 167.8 30.7 4.1 75.8 10.2 45 6.2 94.1 14.3z"/>
</svg>